/* XPM */
static char *eternallands__[] = {
/* columns rows colors chars-per-pixel */
"32 32 256 2",
"   c #010000",
".  c #0C0002",
"X  c #150304",
"o  c #1B0403",
"O  c #1C0906",
"+  c #1A0709",
"@  c #1D0B0B",
"#  c #13060A",
"$  c #210B04",
"%  c #210E0A",
"&  c #2A0805",
"*  c #370F0F",
"=  c #25110B",
"-  c #2B150D",
";  c #2C160B",
":  c #32160B",
">  c #331B0D",
",  c #3C150D",
"<  c #2A1611",
"1  c #2D1912",
"2  c #2B1B1B",
"3  c #331B13",
"4  c #3A1E14",
"5  c #341510",
"6  c #3A2315",
"7  c #3D2519",
"8  c #3F2818",
"9  c #3E230A",
"0  c #440A00",
"q  c #431C0F",
"w  c #4A1509",
"e  c #4A1A12",
"r  c #581F0D",
"t  c #42240D",
"y  c #4A2309",
"u  c #462407",
"i  c #562507",
"p  c #412619",
"a  c #452B1C",
"s  c #492E1D",
"d  c #482816",
"f  c #542D1C",
"g  c #572614",
"h  c #4C311E",
"j  c #4A3211",
"k  c #54331C",
"l  c #593619",
"z  c #5E381C",
"x  c #563312",
"c  c #6A320B",
"v  c #6D3502",
"b  c #76390B",
"n  c #612C1C",
"m  c #633D1D",
"M  c #693E1D",
"N  c #733D12",
"B  c #462E20",
"V  c #452F28",
"C  c #4D3321",
"Z  c #4C382F",
"A  c #523522",
"S  c #5C3C25",
"D  c #593823",
"F  c #553D31",
"G  c #643E25",
"H  c #6B4117",
"J  c #67401F",
"K  c #754217",
"L  c #5F4024",
"P  c #50413B",
"I  c #634225",
"U  c #6B4121",
"Y  c #62442C",
"T  c #6B452B",
"R  c #6C4B2B",
"E  c #744420",
"W  c #734B26",
"Q  c #7B4A22",
"!  c #794C29",
"~  c #6E5028",
"^  c #7C532F",
"/  c #71512D",
"(  c #664B32",
")  c #754B30",
"_  c #7C4F34",
"`  c #745132",
"'  c #7B5630",
"]  c #7C5A36",
"[  c #765A45",
"{  c #7D7349",
"}  c #864A17",
"|  c #98541A",
" . c #86512A",
".. c #8B5A2B",
"X. c #895527",
"o. c #915628",
"O. c #835436",
"+. c #855D36",
"@. c #8D5A3A",
"#. c #875936",
"$. c #945F32",
"%. c #884F26",
"&. c #8B6235",
"*. c #8A643B",
"=. c #876837",
"-. c #9A6433",
";. c #996B36",
":. c #93643A",
">. c #9C6A3A",
",. c #956739",
"<. c #A5602C",
"1. c #A76934",
"2. c #B06F3C",
"3. c #AA793F",
"4. c #A8733E",
"5. c #BA773A",
"6. c #C57A3E",
"7. c #946D42",
"8. c #9C7441",
"9. c #9A714C",
"0. c #87684C",
"q. c #A47544",
"w. c #AB7743",
"e. c #AC7B45",
"r. c #AA7F4C",
"t. c #A3794A",
"y. c #B37543",
"u. c #B57C43",
"i. c #B37E4C",
"p. c #AC814C",
"a. c #B68146",
"s. c #BB8146",
"d. c #B5844D",
"f. c #BB874D",
"g. c #B88948",
"h. c #A88256",
"j. c #B38451",
"k. c #BD8C54",
"l. c #BB8D59",
"z. c #B48C57",
"x. c #BD925A",
"c. c #B59F73",
"v. c #B28E65",
"b. c #C38C4C",
"n. c #CC8B4B",
"m. c #C99349",
"M. c #D7984D",
"N. c #C38C52",
"B. c #C78F57",
"V. c #C49255",
"C. c #CB9454",
"Z. c #CE9854",
"A. c #CB965D",
"S. c #CD9A5A",
"D. c #C4965C",
"F. c #D39C53",
"G. c #D99B50",
"H. c #D39C5D",
"J. c #DA9D5C",
"K. c #DA9452",
"L. c #D08945",
"P. c #E09D59",
"I. c #D6A25E",
"U. c #DCA45A",
"Y. c #E4A45D",
"T. c #E0A95F",
"R. c #ECB05E",
"E. c #CC9E64",
"W. c #C59966",
"Q. c #D09F63",
"!. c #D19E6D",
"~. c #C69875",
"^. c #CDA069",
"/. c #C9A765",
"(. c #D5A263",
"). c #DAA464",
"_. c #DDA964",
"`. c #D4A56B",
"'. c #DBA768",
"]. c #DDAC6C",
"[. c #D2A867",
"{. c #D9B16C",
"}. c #C8A370",
"|. c #D0A772",
" X c #DCAE73",
".X c #D4AB75",
"XX c #CEB373",
"oX c #DDB272",
"OX c #DFBB7D",
"+X c #E1AD6D",
"@X c #E5AB67",
"#X c #E2B16D",
"$X c #EBB46C",
"%X c #E7B96A",
"&X c #FDBC64",
"*X c #F4B768",
"=X c #E3B574",
"-X c #ECB475",
";X c #EDB974",
":X c #E5BA7B",
">X c #E4B778",
",X c #F5BD73",
"<X c #F7BB71",
"1X c #E1AA73",
"2X c #FFC265",
"3X c #FFC568",
"4X c #FFCA6A",
"5X c #FFCA66",
"6X c #FFD26D",
"7X c #EEC779",
"8X c #FDC575",
"9X c #FFCE74",
"0X c #F5C17A",
"qX c #FCC47C",
"wX c #FFCB7C",
"eX c #F6C373",
"rX c #FFD373",
"tX c #FFD47D",
"yX c #E5CD74",
"uX c #FFE172",
"iX c #FFE778",
"pX c #FFE978",
"aX c #FFF17E",
"sX c #E7B982",
"dX c #F3C483",
"fX c #FDCB83",
"gX c #FDCA8B",
"hX c #F8C885",
"jX c #FEDC84",
"kX c #FFD48B",
"lX c #FFDB89",
"zX c #FFD284",
"xX c #EFD794",
"cX c #FCD796",
"vX c #F3D68F",
"bX c #EDE581",
"nX c #FFE38B",
"mX c #FFE687",
"MX c #FFF381",
"NX c #FFE594",
"BX c #FFE69D",
"VX c #FFEE9A",
"CX c #FFF197",
"ZX c #FFF29C",
"AX c #FFF898",
"SX c #FFEBA1",
"DX c #FFECAE",
"FX c #FFFDA5",
"GX c #FFF2AD",
"HX c #FFFEAD",
"JX c #FFFFB5",
"KX c #FFFDB9",
"LX c #FFF7B8",
"PX c #FFFFCB",
"IX c #FFFFD2",
"UX c None",
/* pixels */
"UXv } b Q UX( ..UXj y ) =.{ > o UX6 & P UXUXN 5.Q l m M UXUXUXUX",
"j T :.w.u.L.L.G.C.o.c.VXoX[.NXW.b c i i K 5.P.hXV.-.o...E UXUXUX",
"a ~ s.V.S.U.Y.Y.G.cXxXr n n g cX=X} 1.@X<XzXwXqX8.V.C.4.w.2.1.UX",
"u R s.b.k.N.).J.+XHXi _ #.O.) w XXkXkXoXkXlXfXwX|.$ ;XS.f.k.5.U ",
"t / f.C.e.q.Z.Y.GXz.g @.O.O.O.) , z.OXo 7.nXt.t HXY 6 hXd.u.>.UX",
"x ' k.H.j.f.$XW.sXy e g g g e D _ d q S 5 4 3 X 8X7.  [.(.y.y.UX",
"I &.j.H.H.*X~.e.@X<XqXfXCXnXlXi.f T G D A 7 p a % 7 @ *.0XN.6.! ",
"S ,.p.(.;X$X!.q.IXPXIXJXh.W.IXFX, G S A s s s s p a 8 ; fXJ.1.UX",
"I >.p.`.=XJ.<XO.bXLXJXy & 0 f yXf S A h a 7 7 a s a h O / ;X .UX",
"Y :.d.].oXI.gX9.yXKXZX1.SXKX=.& T S p @ O - > < h a s a O N.:.UX",
"UX*.t.#X].].BXx bXGXxXJXHXHXNXq A s s 8.+XwXnX+.. C s a % l.+.UX",
"9 *.p.(._.cX/.o mXSXFXx.y JX{.: A 3 q.T.@XqX-XfXt . 6 h = x.R UX",
"UX/ t.S.J.DXg 5 jXBXAXk * e.p p 1 3 . B g.$X1XQ.;Xk.> 7 3 ] UXUX",
"UXW r.b.oXx.; d 7XNXjXk s 4 3 8 S A I > E.fXA.k.t.fX^.$ 3 % C.UX",
"UX&.d.V.hXd s 3 %XnXeX4 a < # 2XuX4XpXA v.;Xx.x.l.'.'.  X d.q.UX",
"i *.b.;Xh.= D = %X9X9X7   3 &X3XF.2Xm.Z qX'.'.(.A.A.(.e.S.N.K UX",
"UX&.S.hX: h 3 *.MX3X6X4X*XiXMXL C.4XZ.A ,X+X'.(.(.(.E.`.V.W W ! ",
"UXX.wX9.$ 6 @ S R S S R ^ R p . *X2XF.C $X'.).(.`.#X`.W.r.^ k z ",
"b -.8X: . a :.+ % 1 1 < < . S ( U.3XF.B ,X<X$X(.].+X].`.r. .D UX",
"c a.r.  *.<X_.+.p a s s s o fX[ m.4XF.Y +X0.h.0X#X].].`.d.o.U UX",
"UXC.= e.tXV._.jXp 4 s h - 6 ZXs G.5XU.2 Y ,.d V fXoX XE.p.1.Q UX",
"UX;.] jXH.S.I._.- a s 7 6 R.lXF M.2X&X. ' aXiXm [ fX X^.z.y.E UX",
"UXb.].C.$X_.,X7.  a s 6 4 rXfXZ b.4X&X1   :.6X5XA dX X}.Q.<.l UX",
"l ..8.I.,XS.$XI ` p p a $ ;X].a uXrX< + Z.&X6X4X; =X:X|.).<.k UX",
"UXH m.eX7XH.).#XCX` = C O r.sX3 ;.4.  w.3.a.a.7   r.hX|.E.5.z UX",
"UXX.V.#X:X_.@X>X<X] = h 7 = lXf.[ D.  l.v.j.:.W.> S kX|.}.f.M UX",
"8 ;.S.E.=X$X_.C.,X+.+ p A @ I mX*XkXI   b.; I.lX  R kX XW.4.G UX",
"H 3.d.Q.]._.S.S.0XD.. 3 = C X T wX8XkX8.A V.CXI   d.hXsXj.$.m UX",
"0.} s.H.(.(.].;XoX=X_.tXI X A + 3 d.qXjXtX8XI   . e.hX>XH. .M UX",
"UX| u.C.#X;XdX#Xl.W.hXqXmXT . 3 @   $ A h     I (.dX:XV.Y.&.k UX",
"UX ...a.C.b.K.Y.a.>.l.].'.kXL q.H.R 3   @ &.V.J.N.D.n.2.-.>.J UX",
"UXUXQ K N ! %.o.-.%.UXUXUXQ a.8XUXUX(.j.w.;XUXUXUX,.$.} ..UXUXUX"
};
